<svg width="13" height="9" viewBox="0 0 13 9" fill="none" xmlns="http://www.w3.org/2000/svg">
<path fill-rule="evenodd" clip-rule="evenodd" d="M2 0.5H11C11.8284 0.5 12.5 1.17157 12.5 2V7.5C12.5 8.32843 11.8284 9 11 9H2C1.17157 9 0.5 8.32843 0.5 7.5V2C0.5 1.17157 1.17157 0.5 2 0.5ZM2 1.5C1.72386 1.5 1.5 1.72386 1.5 2V7.5C1.5 7.77614 1.72386 8 2 8H11C11.2761 8 11.5 7.77614 11.5 7.5V2C11.5 1.72386 11.2761 1.5 11 1.5H2ZM10 4.75C10 5.16421 9.66421 5.5 9.25 5.5C8.83579 5.5 8.5 5.16421 8.5 4.75C8.5 4.33579 8.83579 4 9.25 4C9.66421 4 10 4.33579 10 4.75Z" fill="#7F8FA4"/>
</svg>
