<svg width="12" height="9" viewBox="0 0 12 9" fill="none" xmlns="http://www.w3.org/2000/svg">
<path fill-rule="evenodd" clip-rule="evenodd" d="M11.3444 3.23721C11.4857 3.09487 11.4857 2.86692 11.3444 2.72565C9.91032 1.29158 8.00214 0.503906 5.9741 0.503906C3.94606 0.503906 2.04003 1.29372 0.60595 2.72779C0.464683 2.86906 0.464683 3.09701 0.60595 3.23828C0.747217 3.37955 0.975171 3.37955 1.11644 3.23828C2.4146 1.94119 4.14084 1.22522 5.97517 1.22522C7.81057 1.22522 9.53681 1.93905 10.835 3.23721C10.9045 3.30784 10.9966 3.34316 11.0897 3.34316C11.1817 3.34316 11.2748 3.30677 11.3444 3.23721ZM7.99142 6.08192C7.45203 5.54254 6.73607 5.24609 5.97515 5.24609C5.21423 5.24609 4.49827 5.54254 3.95995 6.08192C3.81869 6.22319 3.81869 6.45115 3.95995 6.59241C4.10122 6.73368 4.32917 6.73368 4.47044 6.59241C4.87284 6.19001 5.40794 5.96955 5.97622 5.96955C6.54557 5.96955 7.0796 6.19001 7.482 6.59241C7.55156 6.66305 7.6436 6.69836 7.73671 6.69836C7.82875 6.69836 7.92185 6.66198 7.99142 6.59241C8.13269 6.45115 8.13269 6.22319 7.99142 6.08192ZM6.17637 7.79522C6.19456 7.80806 6.21383 7.82411 6.23095 7.83909C6.29837 7.90652 6.3369 7.99856 6.3369 8.0938C6.3369 8.18905 6.29837 8.28216 6.23095 8.34851C6.2149 8.36457 6.1967 8.37955 6.17637 8.39239C6.15604 8.40523 6.13463 8.41701 6.11323 8.42557C6.09075 8.4352 6.06721 8.44269 6.04473 8.44697C6.02012 8.45125 5.99765 8.45446 5.97303 8.45446C5.87778 8.45446 5.78467 8.41594 5.71832 8.34851C5.6509 8.28109 5.61237 8.18691 5.61237 8.0938C5.61237 7.99856 5.6509 7.90545 5.71832 7.83909C5.73438 7.82304 5.75257 7.80806 5.7729 7.79522C5.79324 7.78237 5.81464 7.7706 5.83604 7.76204C5.85852 7.75348 5.88206 7.74599 5.90454 7.74171C5.95163 7.73207 5.99979 7.73207 6.0458 7.74171C6.07042 7.74599 6.09182 7.75134 6.1143 7.76204C6.13677 7.77167 6.15604 7.78237 6.17637 7.79522ZM9.74442 4.32705C8.73843 3.31892 7.3996 2.76562 5.97516 2.76562C4.59031 2.76562 3.27717 3.29431 2.27974 4.25642C2.13633 4.39448 2.13205 4.62243 2.27011 4.76691C2.40817 4.91032 2.63612 4.9146 2.7806 4.77654C3.64318 3.94606 4.77867 3.48801 5.97623 3.48801C7.20697 3.48801 8.36386 3.9664 9.23501 4.83754C9.30457 4.90818 9.39661 4.94349 9.48972 4.94349C9.58175 4.94349 9.67486 4.90711 9.74442 4.83754C9.88569 4.69628 9.88569 4.46832 9.74442 4.32705Z" fill="black"/>
</svg>
